<mxfile host="app.diagrams.net" modified="2023-04-11T16:36:06.181Z" agent="Mozilla/5.0 (Windows NT 10.0; Win64; x64) AppleWebKit/537.36 (KHTML, like Gecko) Chrome/111.0.0.0 Safari/537.36" etag="C4I9xOcbyaL-vNc1PoXj" version="21.1.5" type="github">
  <diagram id="prtHgNgQTEPvFCAcTncT" name="Page-1">
    <mxGraphModel dx="2385" dy="1380" grid="1" gridSize="10" guides="1" tooltips="1" connect="1" arrows="1" fold="1" page="1" pageScale="1" pageWidth="827" pageHeight="1169" math="0" shadow="0">
      <root>
        <mxCell id="0" />
        <mxCell id="1" parent="0" />
        <mxCell id="ZAdHRjTGJZCp-p7u0Igg-31" style="edgeStyle=orthogonalEdgeStyle;rounded=1;orthogonalLoop=1;jettySize=auto;html=1;exitX=0.5;exitY=0;exitDx=0;exitDy=0;entryX=0.5;entryY=1;entryDx=0;entryDy=0;entryPerimeter=0;fillColor=#fff2cc;strokeColor=#d6b656;strokeWidth=6;" edge="1" parent="1" source="ZAdHRjTGJZCp-p7u0Igg-27" target="ZAdHRjTGJZCp-p7u0Igg-12">
          <mxGeometry relative="1" as="geometry">
            <Array as="points">
              <mxPoint x="2010" y="853" />
              <mxPoint x="1625" y="853" />
            </Array>
          </mxGeometry>
        </mxCell>
        <mxCell id="ZAdHRjTGJZCp-p7u0Igg-27" value="" style="rounded=1;whiteSpace=wrap;html=1;" vertex="1" parent="1">
          <mxGeometry x="1850" y="946" width="320" height="200" as="geometry" />
        </mxCell>
        <mxCell id="ZAdHRjTGJZCp-p7u0Igg-1" value="&lt;span style=&quot;font-size: 36px;&quot;&gt;整体架构设计&lt;/span&gt;" style="fillColor=#4DA1F5;strokeColor=none;shadow=1;gradientColor=none;fontSize=14;align=center;spacingLeft=50;fontColor=#ffffff;whiteSpace=wrap;html=1;" vertex="1" parent="1">
          <mxGeometry x="500" y="10" width="570" height="70" as="geometry" />
        </mxCell>
        <mxCell id="ZAdHRjTGJZCp-p7u0Igg-2" value="" style="sketch=0;outlineConnect=0;fontColor=#232F3E;gradientColor=none;fillColor=#3F8624;strokeColor=none;dashed=0;verticalLabelPosition=bottom;verticalAlign=top;align=center;html=1;fontSize=12;fontStyle=0;aspect=fixed;pointerEvents=1;shape=mxgraph.aws4.elastic_file_system_intelligent_tiering;" vertex="1" parent="1">
          <mxGeometry x="509.76" y="1169" width="118.52" height="117" as="geometry" />
        </mxCell>
        <mxCell id="ZAdHRjTGJZCp-p7u0Igg-3" value="&lt;p class=&quot;MsoNormal&quot;&gt;&lt;font style=&quot;font-size: 24px;&quot;&gt;文档存储检索系统&lt;/font&gt;&lt;/p&gt;" style="text;html=1;strokeColor=none;fillColor=none;align=center;verticalAlign=middle;whiteSpace=wrap;rounded=0;" vertex="1" parent="1">
          <mxGeometry x="439.76" y="1302" width="241" height="30" as="geometry" />
        </mxCell>
        <mxCell id="ZAdHRjTGJZCp-p7u0Igg-4" value="" style="shape=image;html=1;verticalAlign=top;verticalLabelPosition=bottom;labelBackgroundColor=#ffffff;imageAspect=0;aspect=fixed;image=https://cdn1.iconfinder.com/data/icons/technology-and-hardware-2/200/vector_66_13-128.png;sketch=1;curveFitting=1;jiggle=2;" vertex="1" parent="1">
          <mxGeometry x="501.26" y="390" width="128" height="128" as="geometry" />
        </mxCell>
        <mxCell id="ZAdHRjTGJZCp-p7u0Igg-5" value="&lt;p class=&quot;MsoNormal&quot;&gt;&lt;span style=&quot;font-size: 24px;&quot;&gt;商品检索比对系统&lt;/span&gt;&lt;/p&gt;" style="text;html=1;strokeColor=none;fillColor=none;align=center;verticalAlign=middle;whiteSpace=wrap;rounded=0;" vertex="1" parent="1">
          <mxGeometry x="444.76" y="540" width="241" height="30" as="geometry" />
        </mxCell>
        <mxCell id="ZAdHRjTGJZCp-p7u0Igg-6" value="" style="outlineConnect=0;dashed=0;verticalLabelPosition=bottom;verticalAlign=top;align=center;html=1;shape=mxgraph.aws3.machine_learning;fillColor=#2E73B8;gradientColor=none;" vertex="1" parent="1">
          <mxGeometry x="1003.5" y="630" width="126" height="123" as="geometry" />
        </mxCell>
        <mxCell id="ZAdHRjTGJZCp-p7u0Igg-7" value="&lt;p class=&quot;MsoNormal&quot;&gt;&lt;span style=&quot;font-size: 24px;&quot;&gt;不良影响排查系统&lt;/span&gt;&lt;/p&gt;" style="text;html=1;strokeColor=none;fillColor=none;align=center;verticalAlign=middle;whiteSpace=wrap;rounded=0;" vertex="1" parent="1">
          <mxGeometry x="946" y="770" width="241" height="30" as="geometry" />
        </mxCell>
        <mxCell id="ZAdHRjTGJZCp-p7u0Igg-8" value="" style="shape=image;html=1;verticalAlign=top;verticalLabelPosition=bottom;labelBackgroundColor=#ffffff;imageAspect=0;aspect=fixed;image=https://cdn4.iconfinder.com/data/icons/48-bubbles/48/43.Bell-128.png" vertex="1" parent="1">
          <mxGeometry x="500.02" y="140" width="138" height="138" as="geometry" />
        </mxCell>
        <mxCell id="ZAdHRjTGJZCp-p7u0Igg-9" value="&lt;p class=&quot;MsoNormal&quot;&gt;&lt;span style=&quot;font-size: 24px;&quot;&gt;公告模块管理系统&lt;/span&gt;&lt;/p&gt;" style="text;html=1;strokeColor=none;fillColor=none;align=center;verticalAlign=middle;whiteSpace=wrap;rounded=0;" vertex="1" parent="1">
          <mxGeometry x="448.52" y="300" width="241" height="30" as="geometry" />
        </mxCell>
        <mxCell id="ZAdHRjTGJZCp-p7u0Igg-10" value="" style="sketch=0;points=[[0,0,0],[0.25,0,0],[0.5,0,0],[0.75,0,0],[1,0,0],[0,1,0],[0.25,1,0],[0.5,1,0],[0.75,1,0],[1,1,0],[0,0.25,0],[0,0.5,0],[0,0.75,0],[1,0.25,0],[1,0.5,0],[1,0.75,0]];outlineConnect=0;fontColor=#232F3E;gradientColor=#60A337;gradientDirection=north;fillColor=#277116;strokeColor=#ffffff;dashed=0;verticalLabelPosition=bottom;verticalAlign=top;align=center;html=1;fontSize=12;fontStyle=0;aspect=fixed;shape=mxgraph.aws4.resourceIcon;resIcon=mxgraph.aws4.cost_and_usage_report;" vertex="1" parent="1">
          <mxGeometry x="482.52" y="858" width="138" height="138" as="geometry" />
        </mxCell>
        <mxCell id="ZAdHRjTGJZCp-p7u0Igg-11" value="&lt;p class=&quot;MsoNormal&quot;&gt;&lt;span style=&quot;font-size: 24px;&quot;&gt;智能报表管理系统&lt;/span&gt;&lt;/p&gt;" style="text;html=1;strokeColor=none;fillColor=none;align=center;verticalAlign=middle;whiteSpace=wrap;rounded=0;" vertex="1" parent="1">
          <mxGeometry x="439.76" y="1018" width="241" height="30" as="geometry" />
        </mxCell>
        <mxCell id="ZAdHRjTGJZCp-p7u0Igg-17" style="edgeStyle=orthogonalEdgeStyle;rounded=0;orthogonalLoop=1;jettySize=auto;html=1;exitX=1;exitY=0.38;exitDx=0;exitDy=0;exitPerimeter=0;entryX=0.438;entryY=1.112;entryDx=0;entryDy=0;entryPerimeter=0;fillColor=#dae8fc;strokeColor=#6c8ebf;strokeWidth=8;" edge="1" parent="1" source="ZAdHRjTGJZCp-p7u0Igg-12" target="ZAdHRjTGJZCp-p7u0Igg-16">
          <mxGeometry relative="1" as="geometry" />
        </mxCell>
        <mxCell id="ZAdHRjTGJZCp-p7u0Igg-37" style="edgeStyle=orthogonalEdgeStyle;rounded=1;orthogonalLoop=1;jettySize=auto;html=1;exitX=0.5;exitY=1;exitDx=0;exitDy=0;exitPerimeter=0;entryX=0;entryY=0.75;entryDx=0;entryDy=0;fillColor=#fff2cc;strokeColor=#d6b656;strokeWidth=6;" edge="1" parent="1" source="ZAdHRjTGJZCp-p7u0Igg-12" target="ZAdHRjTGJZCp-p7u0Igg-27">
          <mxGeometry relative="1" as="geometry" />
        </mxCell>
        <mxCell id="ZAdHRjTGJZCp-p7u0Igg-12" value="" style="points=[[0.02,0.015,0],[0.5,0,0],[0.98,0.015,0],[1,0.38,0],[0.895,0.98,0],[0.5,1,0],[0.105,0.98,0],[0,0.38,0]];verticalLabelPosition=bottom;sketch=0;html=1;verticalAlign=top;aspect=fixed;align=center;pointerEvents=1;shape=mxgraph.cisco19.secure_endpoint_pc;fillColor=#005073;strokeColor=none;" vertex="1" parent="1">
          <mxGeometry x="1550" y="640" width="150" height="120" as="geometry" />
        </mxCell>
        <mxCell id="ZAdHRjTGJZCp-p7u0Igg-13" value="" style="shape=doubleArrow;whiteSpace=wrap;html=1;" vertex="1" parent="1">
          <mxGeometry x="1220" y="690" width="280" height="43" as="geometry" />
        </mxCell>
        <mxCell id="ZAdHRjTGJZCp-p7u0Igg-14" value="&lt;font style=&quot;font-size: 24px;&quot;&gt;本地定期更新不良影响的各类数据&lt;br&gt;包含图片、词汇、宗教信仰标识等&lt;br&gt;&lt;/font&gt;" style="text;html=1;align=center;verticalAlign=middle;resizable=0;points=[];autosize=1;strokeColor=none;fillColor=none;" vertex="1" parent="1">
          <mxGeometry x="1160" y="620" width="380" height="70" as="geometry" />
        </mxCell>
        <mxCell id="ZAdHRjTGJZCp-p7u0Igg-15" value="" style="image;aspect=fixed;perimeter=ellipsePerimeter;html=1;align=center;shadow=0;dashed=0;spacingTop=3;image=img/lib/active_directory/internet_globe.svg;" vertex="1" parent="1">
          <mxGeometry x="1870" y="348" width="172" height="172" as="geometry" />
        </mxCell>
        <mxCell id="ZAdHRjTGJZCp-p7u0Igg-16" value="&lt;span style=&quot;font-size: 24px;&quot;&gt;因特网&lt;/span&gt;" style="text;html=1;align=center;verticalAlign=middle;resizable=0;points=[];autosize=1;strokeColor=#d6b656;fillColor=#fff2cc;" vertex="1" parent="1">
          <mxGeometry x="1905" y="518" width="100" height="40" as="geometry" />
        </mxCell>
        <mxCell id="ZAdHRjTGJZCp-p7u0Igg-18" value="&lt;span style=&quot;font-size: 24px;&quot;&gt;实时收集不良影响数据集&lt;/span&gt;" style="text;html=1;align=center;verticalAlign=middle;resizable=0;points=[];autosize=1;strokeColor=none;fillColor=none;" vertex="1" parent="1">
          <mxGeometry x="1730" y="698" width="290" height="40" as="geometry" />
        </mxCell>
        <mxCell id="ZAdHRjTGJZCp-p7u0Igg-23" style="edgeStyle=orthogonalEdgeStyle;rounded=1;orthogonalLoop=1;jettySize=auto;html=1;entryX=0.5;entryY=0;entryDx=0;entryDy=0;entryPerimeter=0;fillColor=#fff2cc;strokeColor=#d6b656;strokeWidth=6;" edge="1" parent="1" source="ZAdHRjTGJZCp-p7u0Igg-19" target="ZAdHRjTGJZCp-p7u0Igg-12">
          <mxGeometry relative="1" as="geometry" />
        </mxCell>
        <mxCell id="ZAdHRjTGJZCp-p7u0Igg-19" value="" style="shape=mxgraph.cisco.computers_and_peripherals.scanner;html=1;pointerEvents=1;dashed=0;fillColor=#036897;strokeColor=#ffffff;strokeWidth=2;verticalLabelPosition=bottom;verticalAlign=top;align=center;outlineConnect=0;" vertex="1" parent="1">
          <mxGeometry x="1565" y="190" width="120" height="65" as="geometry" />
        </mxCell>
        <mxCell id="ZAdHRjTGJZCp-p7u0Igg-20" value="&lt;span style=&quot;font-size: 24px;&quot;&gt;二维码扫描器，&lt;br&gt;解析二维码中的商标相关信息&lt;br&gt;交给不良影响排查系统校验&lt;br&gt;&lt;/span&gt;" style="text;html=1;align=center;verticalAlign=middle;resizable=0;points=[];autosize=1;strokeColor=none;fillColor=none;" vertex="1" parent="1">
          <mxGeometry x="1450" y="270" width="340" height="100" as="geometry" />
        </mxCell>
        <mxCell id="ZAdHRjTGJZCp-p7u0Igg-25" value="" style="fontColor=#0066CC;verticalAlign=top;verticalLabelPosition=bottom;labelPosition=center;align=center;html=1;outlineConnect=0;fillColor=#CCCCCC;strokeColor=#6881B3;gradientColor=none;gradientDirection=north;strokeWidth=2;shape=mxgraph.networks.pc;" vertex="1" parent="1">
          <mxGeometry x="1880" y="1000" width="120" height="88" as="geometry" />
        </mxCell>
        <mxCell id="ZAdHRjTGJZCp-p7u0Igg-26" value="" style="image;sketch=0;aspect=fixed;html=1;points=[];align=center;fontSize=12;image=img/lib/mscae/Managed_Desktop.svg;" vertex="1" parent="1">
          <mxGeometry x="2040" y="1000" width="127.78" height="92" as="geometry" />
        </mxCell>
        <mxCell id="ZAdHRjTGJZCp-p7u0Igg-28" value="&lt;font style=&quot;font-size: 24px;&quot;&gt;PC端审核人员&lt;/font&gt;" style="text;html=1;align=center;verticalAlign=middle;resizable=0;points=[];autosize=1;strokeColor=#d6b656;fillColor=#fff2cc;" vertex="1" parent="1">
          <mxGeometry x="1930" y="1160" width="180" height="40" as="geometry" />
        </mxCell>
        <mxCell id="ZAdHRjTGJZCp-p7u0Igg-36" value="" style="curved=1;endArrow=classic;html=1;rounded=0;" edge="1" parent="1">
          <mxGeometry width="50" height="50" relative="1" as="geometry">
            <mxPoint x="1070" y="720" as="sourcePoint" />
            <mxPoint x="1120" y="670" as="targetPoint" />
            <Array as="points">
              <mxPoint x="1120" y="720" />
              <mxPoint x="1070" y="670" />
            </Array>
          </mxGeometry>
        </mxCell>
      </root>
    </mxGraphModel>
  </diagram>
</mxfile>
